HIERARCHY
ROOT root
{
	OFFSET	0	13.1	24.9
	CHANNELS 6  Xposition Yposition Zposition Xrotation Yrotation Zrotation
	JOINT spine_1
	{
		OFFSET	0	9.99999	0
		CHANNELS 3  Xrotation Yrotation Zrotation
		JOINT spine_2
		{
			OFFSET	0	112	-10
			CHANNELS 3  Xrotation Yrotation Zrotation
			JOINT spine_3
			{
				OFFSET	0	206.5	19.3
				CHANNELS 3  Xrotation Yrotation Zrotation
				JOINT spine_4
				{
					OFFSET	0	110.4	14.6
					CHANNELS 3  Xrotation Yrotation Zrotation
					JOINT neck_1
					{
						OFFSET	0	71.8	-50.3
						CHANNELS 3  Xrotation Yrotation Zrotation
						JOINT neck_2
						{
							OFFSET	0	86.2	-25.8
							CHANNELS 3  Xrotation Yrotation Zrotation
							JOINT head_ee
							{
								OFFSET	0	179.8	-8.7
								CHANNELS 3  Xrotation Yrotation Zrotation
								End Site
								{
									OFFSET	1	0	0
								}
							}
						}
					}
					JOINT left_clavicle
					{
						OFFSET	-43.2	22.4	-70.8
						CHANNELS 3  Xrotation Yrotation Zrotation
						JOINT left_shoulder
						{
							OFFSET	-93.9	-5.79999	48.7
							CHANNELS 3  Xrotation Yrotation Zrotation
							JOINT left_elbow
							{
								OFFSET	-291.4	-30.8	15.2
								CHANNELS 3  Xrotation Yrotation Zrotation
								JOINT left_lowarm_twist
								{
									OFFSET	-110.7	-3.89999	13.6
									CHANNELS 3  Xrotation Yrotation Zrotation
									JOINT left_hand
									{
										OFFSET	-110.7	-3.89999	13.6
										CHANNELS 3  Xrotation Yrotation Zrotation
										JOINT left_ee
										{
											OFFSET	-80.8	-5.10001	12.1
											CHANNELS 3  Xrotation Yrotation Zrotation
											End Site
											{
												OFFSET	1	0	0
											}
										}
									}
								}
							}
						}
					}
					JOINT right_clavicle
					{
						OFFSET	43.2	22.4	-70.8
						CHANNELS 3  Xrotation Yrotation Zrotation
						JOINT right_shoulder
						{
							OFFSET	93.9	-5.79999	48.7
							CHANNELS 3  Xrotation Yrotation Zrotation
							JOINT right_elbow
							{
								OFFSET	291.4	-30.8	15.2
								CHANNELS 3  Xrotation Yrotation Zrotation
								JOINT right_lowarm_twist
								{
									OFFSET	110.7	-3.89999	13.6
									CHANNELS 3  Xrotation Yrotation Zrotation
									JOINT right_hand
									{
										OFFSET	110.7	-3.89999	13.6
										CHANNELS 3  Xrotation Yrotation Zrotation
										JOINT right_ee
										{
											OFFSET	80.8	-5.10001	12.1
											CHANNELS 3  Xrotation Yrotation Zrotation
											End Site
											{
												OFFSET	1	0	0
											}
										}
									}
								}
							}
						}
					}
				}
			}
		}
	}
	JOINT left_hip
	{
		OFFSET	-82.8	-127.5	0.300001
		CHANNELS 3  Xrotation Yrotation Zrotation
		JOINT left_knee
		{
			OFFSET	-28.2	-396.7	2.2
			CHANNELS 3  Xrotation Yrotation Zrotation
			JOINT left_ankle
			{
				OFFSET	-11.7	-411.3	35.4
				CHANNELS 3  Xrotation Yrotation Zrotation
				JOINT left_toes
				{
					OFFSET	0	-60	-88.6
					CHANNELS 3  Xrotation Yrotation Zrotation
					JOINT left_foot_ee
					{
						OFFSET	-22.5	-16.5	-42.2
						CHANNELS 3  Xrotation Yrotation Zrotation
						End Site
						{
							OFFSET	1	0	0
						}
					}
				}
			}
		}
	}
	JOINT right_hip
	{
		OFFSET	82.8	-127.5	0.300001
		CHANNELS 3  Xrotation Yrotation Zrotation
		JOINT right_knee
		{
			OFFSET	28.2	-396.7	2.2
			CHANNELS 3  Xrotation Yrotation Zrotation
			JOINT right_ankle
			{
				OFFSET	11.7	-411.3	35.4
				CHANNELS 3  Xrotation Yrotation Zrotation
				JOINT right_toes
				{
					OFFSET	0	-60	-88.6
					CHANNELS 3  Xrotation Yrotation Zrotation
					JOINT right_foot_ee
					{
						OFFSET	22.5	-16.5	-42.2
						CHANNELS 3  Xrotation Yrotation Zrotation
						End Site
						{
							OFFSET	1	0	0
						}
					}
				}
			}
		}
	}
}
MOTION
Frames: 6
Frame Time: 0.02
1147.21 672.763 -1512.11 -3.28817 72.0606 18.0917 0.209448 -0.732503 -4.87995 0.222592 -0.420879 -4.91655 0.264819 0.60017 -4.89794 0.231402 -0.179927 -4.93121 2.76465 0.333359 -0.602249 2.76739 1.09434 -0.644756 -0.0 0.0 -0.0 13.6403 -22.9475 27.4953 -15.6066 -29.3707 39.5181 1.75676 -41.0277 0.657354 63.9273 -2.13577 -7.45804 -0.171452 -2.17243 -2.06897 -0.0 0.0 -0.0 4.35435 -12.6884 -8.75128 -30.8501 20.3436 -57.598 0.694658 18.9891 -0.116179 56.0379 1.43416 6.73065 -1.28211 -9.01191 4.52164 0.0 0.0 0.0 0.313156 24.1041 -24.3658 -12.4071 0.308828 1.87529 37.7568 -29.7712 -5.67688 -4.50072 0.0 0.0 -0.0 0.0 -0.0 20.367 -5.10603 -15.5342 4.70904 0.222361 0.688068 17.2761 -11.6589 2.39424 -38.7137 0.0 0.0 0.0 0.0 0.0 
1125.59 667.386 -1523.95 -3.76925 73.8772 17.3077 0.462896 -0.622904 -4.6746 0.47499 -0.324522 -4.70467 0.506261 0.6313 -4.67347 0.475812 -0.11386 -4.71445 2.93048 0.811543 -0.00922508 2.93249 1.42276 0.0481475 -0.0 0.0 -0.0 12.7696 -19.1897 25.765 -13.8637 -28.7029 44.1386 1.97471 -44.3641 0.805207 62.6084 -2.01157 -7.34322 -0.16384 -3.20628 -2.45852 -0.0 0.0 -0.0 4.50045 -13.099 -8.99984 -30.7784 20.2141 -57.7927 0.724585 19.745 -0.126104 56.515 1.47367 6.7773 -1.15434 -9.0135 3.69605 0.0 0.0 0.0 -0.338044 22.9702 -24.9447 -12.5551 0.310046 1.89798 37.381 -29.9395 -5.64964 -3.13537 0.0 0.0 -0.0 0.0 -0.0 19.7324 -4.94677 -14.4998 4.96202 0.235903 0.724503 15.7661 -10.8348 2.19645 -38.9105 0.0 0.0 0.0 0.0 0.0 
1107.12 671.21 -1544.91 -4.54084 75.6112 17.5063 0.530427 -0.53664 -4.46698 0.541489 -0.2516 -4.49201 0.565132 0.655322 -4.45115 0.537498 -0.0551397 -4.4987 3.01054 0.800654 0.677002 3.01191 0.817187 0.811629 -0.0 0.0 -0.0 12.1161 -15.5594 24.4431 -13.4372 -27.8133 48.3846 2.01919 -45.002 0.836489 61.6491 -1.92293 -7.25794 -0.207078 -3.94462 -3.06494 -0.0 0.0 -0.0 4.517 -15.3034 -9.03317 -30.8396 20.2182 -58.2566 0.744462 20.2432 -0.1329 56.2508 1.45174 6.7515 -1.04303 -8.95813 3.00273 0.0 0.0 0.0 -0.45792 21.9295 -25.0406 -12.7475 0.311541 1.92745 37.0084 -30.9587 -5.68228 -1.88071 0.0 0.0 -0.0 0.0 -0.0 18.9493 -5.00906 -14.7523 5.03775 0.239989 0.735398 16.0003 -10.1981 2.22564 -39.0301 0.0 0.0 0.0 0.0 0.0 
1085.53 673.589 -1557.34 -11.6782 79.0772 24.382 0.712136 -0.754664 -4.54896 0.723524 -0.463985 -4.58765 0.764546 0.449856 -4.58905 0.735279 -0.279754 -4.60253 3.07847 0.792192 1.1592 3.0818 0.389218 1.34906 -0.0 0.0 -0.0 11.5603 -12.1793 23.2695 -13.077 -25.2612 50.9928 1.84759 -42.4619 0.717835 61.6848 -1.9262 -7.26114 -0.194179 -5.36184 -3.58374 -0.0 0.0 -0.0 5.44094 -21.2272 -10.3363 -28.0304 19.5076 -52.1014 0.596573 16.4639 -0.0863077 56.061 1.43606 6.73291 -1.24146 -5.07304 6.03801 0.0 0.0 0.0 -0.875681 20.6322 -24.957 -14.6694 0.32104 2.22217 37.6334 -29.6296 -5.65453 4.79275 -0.0 -0.0 -0.0 0.0 -0.0 17.2047 -6.46224 -14.6663 4.53001 0.212875 0.66225 24.0789 -9.76285 3.22771 -35.427 0.0 0.0 0.0 0.0 0.0 
1054.8 680.514 -1569.21 -8.61084 77.4154 21.0818 0.675281 -0.879966 -4.55425 0.686623 -0.588699 -4.60087 0.738109 0.331942 -4.62644 0.708477 -0.402082 -4.62088 2.97644 0.757038 1.11429 2.97953 0.368674 1.29577 -0.0 0.0 -0.0 11.5521 -11.1759 23.2633 -15.5538 -24.3956 53.5072 1.49239 -36.4727 0.491749 61.7143 -1.9289 -7.26378 -0.315363 -5.23484 -4.34826 -0.0 0.0 -0.0 5.61968 -22.5085 -10.5353 -27.1099 19.8011 -50.8402 0.58201 16.083 -0.0822268 56.1549 1.44382 6.74212 -1.21263 -3.47778 6.56551 0.0 0.0 0.0 1.23021 18.9529 -24.2382 -14.6556 0.321007 2.22005 35.7145 -29.386 -5.43565 4.7949 -0.0 -0.0 -0.0 0.0 -0.0 16.081 -6.60098 -15.0699 1.2808 0.0548567 0.188882 24.4327 -12.0049 3.27862 -34.493 0.0 0.0 0.0 0.0 0.0 
1042.34 685.701 -1579.44 -5.53429 74.6289 17.9728 0.842556 -0.789658 -4.51565 0.853756 -0.501022 -4.55663 0.897076 0.396712 -4.56687 0.868133 -0.328743 -4.57226 2.28539 -0.324163 2.34524 2.31152 -2.55081 2.56667 -0.0 0.0 -0.0 11.5339 -11.5111 23.2189 -16.9921 -22.8202 55.0 1.11117 -28.8293 0.285611 62.5597 -2.00703 -7.33892 -0.556895 -3.73561 -5.33574 -0.0 0.0 -0.0 6.62444 -22.0556 -12.0246 -24.6877 20.8685 -50.9793 0.501319 13.9468 -0.0613185 56.6518 1.48507 6.79061 -1.42245 -2.88538 8.23312 0.0 0.0 0.0 2.04345 15.8611 -23.7594 -20.772 0.285662 3.1574 36.9171 -29.5093 -5.572 6.20462 -0.0 -0.0 -0.0 0.0 -0.0 15.2697 -6.6632 -15.1921 2.21631 0.0975914 0.326062 22.1549 -13.8135 3.01591 -34.1428 0.0 0.0 0.0 0.0 0.0 
